# xmcd
#
# Track frame offsets:
#	150
#	14269
#	30027
#	46011
#	62533
#	77419
#	93426
#	107972
#	121108
#	135420
#	151216
#	162798
#	177071
#	192071
#
# Disc length: 2773 seconds
#
# Revision: 0
# Processed by: cddbd v1.5.1PL0 Copyright (c) Steve Scherf et al.
# Submitted via: audiograbber 1.83.01
#
DISCID=900ad30e
DTITLE=Truck Stop - Der Tramp 2
DYEAR=2003
DGENRE=Country
TTITLE0=Das gibt's doch nur in Dallas
TTITLE1=Ich steh' auf Jeans und Country Musik
TTITLE2=Kopf oder Zahl (Geh'n wir nun zu dir oder mir)
TTITLE3=Die Sonne steht tief
TTITLE4=Black Jack
TTITLE5=Hannas Mann
TTITLE6=Der Tramp
TTITLE7=Die Frau mit dem Gurt
TTITLE8=Nashville Tennessee
TTITLE9=Ich rauch zuviel
TTITLE10=Lass die Mädels wissen
TTITLE11=Angeln entspannt
TTITLE12=Country New Wave
TTITLE13=Der Roadie von der Country Band 
EXTD=Vol 2
EXTT0=
EXTT1=
EXTT2=
EXTT3=
EXTT4=
EXTT5=
EXTT6=
EXTT7=
EXTT8=
EXTT9=
EXTT10=
EXTT11=
EXTT12=
EXTT13=
PLAYORDER=
